<svg xmlns="http://www.w3.org/2000/svg" viewBox="0 0 406.66 165.32"><defs><style>.cls-1{fill:#fff;}.cls-2{fill:#b3b3b3;}</style></defs><title>Asset 3</title><g id="Layer_2" data-name="Layer 2"><g id="Layer_1-2" data-name="Layer 1"><path class="cls-1" d="M51.64,165.32A19.22,19.22,0,1,1,70.87,146.1,19.24,19.24,0,0,1,51.64,165.32Zm0-34.8A15.58,15.58,0,1,0,67.23,146.1,15.6,15.6,0,0,0,51.64,130.52Z"/><rect class="cls-1" x="66.04" y="56.25" width="3.64" height="38.5" transform="translate(-28 108.91) rotate(-67.27)"/><path class="cls-1" d="M26.1,84.2A26.1,26.1,0,1,1,52.2,58.1,26.13,26.13,0,0,1,26.1,84.2Zm0-48.56A22.46,22.46,0,1,0,48.56,58.1,22.48,22.48,0,0,0,26.1,35.64Z"/><path class="cls-1" d="M130.8,73.39A16.7,16.7,0,1,1,147.5,56.7,16.71,16.71,0,0,1,130.8,73.39Zm0-29.75A13.06,13.06,0,1,0,143.86,56.7,13.08,13.08,0,0,0,130.8,43.64Z"/><path class="cls-1" d="M92.49,93.74a7.85,7.85,0,1,1,7.85-7.85A7.87,7.87,0,0,1,92.49,93.74Zm0-12.07a4.22,4.22,0,1,0,4.21,4.22A4.22,4.22,0,0,0,92.49,81.67Z"/><path class="cls-1" d="M149.61,15.71a7.86,7.86,0,1,1,7.85-7.86A7.87,7.87,0,0,1,149.61,15.71Zm0-12.07a4.22,4.22,0,1,0,4.22,4.21A4.23,4.23,0,0,0,149.61,3.64Z"/><path class="cls-1" d="M168,124.06a19.23,19.23,0,1,1,19.22-19.22A19.25,19.25,0,0,1,168,124.06Zm0-34.81a15.59,15.59,0,1,0,15.58,15.59A15.6,15.6,0,0,0,168,89.25Z"/><rect class="cls-1" x="51.19" y="109.12" width="48.62" height="3.64" transform="translate(-58.69 111.38) rotate(-55.95)"/><rect class="cls-1" x="125.59" y="27.02" width="32.03" height="3.64" transform="translate(63.81 150.62) rotate(-68.94)"/><rect class="cls-1" x="146.95" y="64.98" width="3.64" height="30.04" transform="translate(-18 106.82) rotate(-37.41)"/><rect class="cls-1" x="94.47" y="72.14" width="27.34" height="3.64" transform="translate(-22.7 80.63) rotate(-37.29)"/><path class="cls-1" d="M227.55,31.66V57.22c0,9.8-4.11,14.54-12.63,14.54S203,66.71,203,57.33V31.63c0-9.66,4.68-14.33,12.4-14.33C223.33,17.3,227.55,22.23,227.55,31.66Zm-17.33-.57v27c0,5,1.83,7.25,5,7.25,3.42,0,5.06-2.09,5.06-7.43V31.06c0-4.81-1.56-7.29-5.08-7.29C211.91,23.77,210.22,26.06,210.22,31.09Z"/><path class="cls-1" d="M260.46,50.3c0-9.3.13-20.2.29-26.1h-.08C259.41,33.26,256,55.5,253.49,71H246.7c-1.89-13.7-5.36-37.28-6.6-46.87h-.16c.16,6.17.42,18.16.42,27.26V71h-6.49V18h10.57c2.41,14.39,5.11,31.3,5.82,38.44h.08c.85-7.13,4.22-24.88,6.66-38.44h10.26V71h-6.8Z"/><path class="cls-1" d="M274.71,18h19.71v6.59H281.81V40h12v6.58h-12V71h-7.1Z"/><path class="cls-2" d="M221.93,96.85c0,5.87-3.2,11.22-10,11.22-6.18,0-9.78-4.89-9.78-11.07s3.48-11.07,10-11.07C218.2,85.93,221.93,90.58,221.93,96.85ZM204,96.91c0,5,2.79,9.62,8.06,9.62,5.68,0,8.06-4.55,8.06-9.65s-2.7-9.41-8-9.41C206.46,87.47,204,92.05,204,96.91Z"/><path class="cls-2" d="M227.83,105.49v8.42h-1.57V96.17c0-1.26,0-2.61,0-3.78h1.54c.06.59.06,1.51.06,2.77A5.77,5.77,0,0,1,233.35,92c3.7,0,6.28,3,6.28,7.66,0,5.53-3,8.45-6.81,8.45C230.06,108.13,228.61,106.93,227.83,105.49ZM238,99.74c0-3.57-1.75-6.24-4.86-6.24-3.8,0-5.36,2.33-5.36,6.52s1.22,6.67,5.14,6.67C236.14,106.69,238,104,238,99.74Z"/><path class="cls-2" d="M244.08,100.26c0,4,2.07,6.43,5.08,6.43a4.41,4.41,0,0,0,4.52-2.89h1.6a6,6,0,0,1-6.18,4.33c-4.77,0-6.62-4-6.62-7.93,0-4.4,2.23-8.18,6.81-8.18,4.83,0,6.37,4.09,6.37,7,0,.43,0,.86,0,1.26ZM254,98.91c0-3-1.73-5.44-4.8-5.44-3.23,0-4.71,2.21-5,5.44Z"/><path class="cls-2" d="M259.49,96.27c0-1.36,0-2.65,0-3.88H261a28.87,28.87,0,0,1,.07,2.92,5.11,5.11,0,0,1,5.2-3.29c2.8,0,5.27,1.54,5.27,5.78v10H270V98.05c0-2.74-1.17-4.52-3.89-4.52-3.74,0-5,3-5,6.39v7.84h-1.57Z"/><path class="cls-2" d="M304.35,97.86c0-4.21,0-8.24.13-10.39h-.1c-.88,2.89-5.33,13.5-8.12,20.29h-1.67c-2.1-5.25-6.71-17.06-7.71-20.32h-.07c.16,2.46.22,7.47.22,11.16v9.16h-1.69V86.24h2.54c3,7.38,6.81,17,7.62,19.46h.07c.5-1.56,4.89-12.29,8-19.46H306v21.52h-1.69Z"/><path class="cls-2" d="M324.27,100.05c0,4.27-2.41,8.08-7.09,8.08-4.23,0-6.87-3.41-6.87-8,0-4.4,2.48-8.06,7-8.06C321.51,92,324.27,95.22,324.27,100.05Zm-12.29,0c0,3.66,2,6.61,5.33,6.61s5.3-2.74,5.3-6.61c0-3.63-1.88-6.61-5.36-6.61S312,96.39,312,100.08Z"/><path class="cls-2" d="M340.46,85.1v18.24c0,1.47,0,2.89,0,4.42H339a25.68,25.68,0,0,1-.1-2.58c-.78,1.88-2.54,2.95-5.27,2.95-4.08,0-6.52-3.26-6.52-7.87S329.76,92,334,92c3.14,0,4.39,1.32,4.86,2.31V85.1Zm-11.7,15.1c0,4.21,2.23,6.49,4.93,6.49,4.14,0,5.27-2.8,5.27-7,0-4-1-6.24-5-6.24C330.86,93.47,328.76,95.9,328.76,100.2Z"/><path class="cls-2" d="M346,100.26c0,4,2.07,6.43,5.09,6.43a4.41,4.41,0,0,0,4.51-2.89h1.6a6,6,0,0,1-6.18,4.33c-4.77,0-6.62-4-6.62-7.93,0-4.4,2.23-8.18,6.81-8.18,4.83,0,6.37,4.09,6.37,7,0,.43,0,.86,0,1.26Zm9.95-1.35c0-3-1.73-5.44-4.8-5.44-3.23,0-4.71,2.21-5.05,5.44Z"/><path class="cls-2" d="M361.48,107.76V85.1h1.57v22.66Z"/><path class="cls-2" d="M368.2,85.1h1.57v3H368.2Zm0,7.29h1.57v15.37H368.2Z"/><path class="cls-2" d="M374.91,96.27c0-1.36,0-2.65,0-3.88h1.54c.06.49.09,2.49.06,2.92A5.12,5.12,0,0,1,381.69,92c2.79,0,5.27,1.54,5.27,5.78v10h-1.57V98.05c0-2.74-1.16-4.52-3.89-4.52-3.73,0-5,3-5,6.39v7.84h-1.57Z"/><path class="cls-2" d="M404.09,106.72c0,4.92-2.23,7.5-6.78,7.5-4.08,0-5.77-2.24-6.15-4.58h1.6c.57,2.12,2.35,3.14,4.61,3.14,4.08,0,5.21-2.59,5.21-6.49v-1.6c-.85,2-2.38,3.07-5.24,3.07-3.67,0-6.49-2.92-6.49-7.68,0-5.17,3-8.06,6.71-8.06,3.2,0,4.58,1.48,5,2.71,0-.89.06-2,.1-2.34h1.47c0,.55-.06,3-.06,4.46ZM392.51,100c0,3.66,2,6.3,5,6.3,3.92,0,5.11-2.55,5.11-6.55s-1.25-6.3-5-6.3C394,93.47,392.51,96.51,392.51,100Z"/><path class="cls-2" d="M204.67,120h18.41v2.17H207v11.46h15.07v2.17H207v14.6h-2.34Z"/><path class="cls-2" d="M227.24,134.61c0-3.65,0-5.21,0-5.91h2.13c0,.7.09,2.09.09,4.87a8.2,8.2,0,0,1,7.55-5.39v2.35c-4.51.3-7.55,3.43-7.55,8.59v11.3h-2.18Z"/><path class="cls-2" d="M255.47,146.29a25.11,25.11,0,0,0,.3,4.13h-2.08a14.83,14.83,0,0,1-.39-3.35c-.74,1.61-2.65,3.87-7.12,3.87-5,0-7.21-3.26-7.21-6.52,0-4.77,3.69-6.95,10.2-6.95h4.13v-2.21c0-2.17-.65-5.08-5.6-5.08-4.39,0-5,2.3-5.52,4.08H240c.26-2.39,1.74-6.08,7.73-6.08,4.95,0,7.73,2.09,7.73,6.86Zm-2.13-6.95h-4.25c-4.82,0-7.82,1.26-7.82,5,0,2.73,1.95,4.6,5,4.6,6.21,0,7.08-4.13,7.08-8.82Z"/><path class="cls-2" d="M262.63,134.3c0-1.86,0-3.9,0-5.6h2.13c0,.74.13,2.61.08,3.87a6.81,6.81,0,0,1,6.52-4.39c3,0,5.43,1.52,6.29,4.3a7.4,7.4,0,0,1,7.08-4.3c3.35,0,6.82,1.91,6.82,7.95v14.29h-2.17v-14c0-2.91-1-6.08-5.08-6.08-4.21,0-6.12,3.39-6.12,7.6v12.51H276v-14c0-3.17-1-6.12-4.95-6.12-4.21,0-6.26,3.73-6.26,8.16v11.95h-2.17Z"/><path class="cls-2" d="M299.11,139.82c0,5.6,2.86,9.08,7,9.08a6.14,6.14,0,0,0,6.26-4.09h2.21c-.91,2.87-3.21,6.13-8.55,6.13-6.61,0-9.17-5.69-9.17-11.21,0-6.21,3.09-11.55,9.42-11.55,6.69,0,8.82,5.78,8.82,9.86,0,.61,0,1.22,0,1.78Zm13.76-1.91c0-4.3-2.39-7.69-6.64-7.69-4.47,0-6.52,3.13-7,7.69Z"/><path class="cls-2" d="M320.82,128.7c3.21,11.21,5.08,17.63,5.43,19.54h0c.35-1.73,2.52-8.55,5.91-19.54h2.34c4,13.42,5.26,17.29,5.65,19h0c.61-2.39,1.61-5.65,5.6-19h2.3l-6.86,21.72h-2.39c-2.34-7.69-5.16-17.11-5.6-19.11h0c-.44,2.13-2.91,9.9-5.73,19.11H324.9l-6.38-21.72Z"/><path class="cls-2" d="M370.19,139.52c0,6-3.34,11.42-9.81,11.42-5.87,0-9.51-4.82-9.51-11.38,0-6.21,3.43-11.38,9.72-11.38C366.37,128.18,370.19,132.7,370.19,139.52Zm-17,0c0,5.17,2.78,9.34,7.38,9.34s7.34-3.87,7.34-9.34c0-5.13-2.61-9.34-7.43-9.34S353.17,134.35,353.17,139.56Z"/><path class="cls-2" d="M375.57,134.61c0-3.65,0-5.21,0-5.91h2.13c0,.7.08,2.09.08,4.87a8.22,8.22,0,0,1,7.56-5.39v2.35c-4.52.3-7.56,3.43-7.56,8.59v11.3h-2.17Z"/><path class="cls-2" d="M391.81,139.91c2-2.13,8.08-8.3,11-11.21h2.78l-8.6,8.64,9.68,13.08H404l-8.55-11.69-3.61,3.48v8.21h-2.17v-32h2.17Z"/></g></g></svg>