<svg xmlns="http://www.w3.org/2000/svg" viewBox="0 0 145.72 150.19"><defs><style>.cls-1{fill:#92278f;}</style></defs><title>Asset 3</title><g id="Layer_2" data-name="Layer 2"><g id="Layer_1-2" data-name="Layer 1"><path class="cls-1" d="M145.72,56.91c-1.1,2.69-1.56,3-4.61,3H98.81a14.36,14.36,0,0,1-1.61,0,3.11,3.11,0,0,1-2.25-5,14.23,14.23,0,0,1,1.49-1.62L108.8,40.84c-2.67-2.19-5.12-4.49-7.85-6.4a46.22,46.22,0,0,0-22.21-8.29c-15.2-1.51-28.35,3.16-39.39,13.71a48.12,48.12,0,0,0-11.61,17.4c-1,2.56-1.75,3-4.51,3-6.05,0-12.1-.08-18.14,0-3.33.07-4.74-2.17-3.85-5.24a75.44,75.44,0,0,1,21.22-35A72.85,72.85,0,0,1,58.63,1.52C61.73.9,64.9.66,68,.24c.43-.06.86-.16,1.28-.24h9.08c1.39.19,2.77.41,4.16.58a72.2,72.2,0,0,1,36.7,15.29c2.66,2.09,5.14,4.43,7.86,6.79.33-.38.65-.82,1-1.19,3.89-3.91,7.77-7.82,11.69-11.7,1.7-1.69,3.81-1.67,5.06,0a10.14,10.14,0,0,1,.84,1.68Z"/><path class="cls-1" d="M67.26,150.19c-2.73-.39-5.49-.71-8.21-1.19a72.61,72.61,0,0,1-35.63-17.13c-1.58-1.37-3.08-2.83-5-4.56a7.88,7.88,0,0,1-.89,1.35c-3.85,3.89-7.72,7.75-11.58,11.63-1.11,1.11-2.33,1.8-3.92,1.13A3.43,3.43,0,0,1,0,137.86Q0,116,0,94.16c0-2.64,1.24-3.86,3.86-3.87H47.63a3.33,3.33,0,0,1,3.45,2c.67,1.57.06,2.83-1.07,4Q44.1,102.07,38.22,108c-.38.37-.74.76-1.15,1.2A46.16,46.16,0,0,0,49,118.4a47.84,47.84,0,0,0,28.35,5.67c12.57-1.33,23-7,31.45-16.3a47.74,47.74,0,0,0,9.22-15c.9-2.35,1.76-2.89,4.32-2.9q9.21,0,18.44,0c3.27,0,4.58,1.82,3.71,4.94a74.62,74.62,0,0,1-21.26,35.25A73,73,0,0,1,87,148.67c-3.1.62-6.26.86-9.4,1.28-.43.06-.85.16-1.28.24Z"/></g></g></svg>