<svg xmlns="http://www.w3.org/2000/svg" viewBox="0 0 111.16 155.48"><defs><style>.cls-1{fill:#fbb040;}</style></defs><title>Asset 4</title><g id="Layer_2" data-name="Layer 2"><g id="Layer_1-2" data-name="Layer 1"><path class="cls-1" d="M102.07,155.48h-93c-.51-.22-1-.47-1.52-.67A11.14,11.14,0,0,1,.11,143.7a10.38,10.38,0,0,1,4.47-8.23,18.45,18.45,0,0,0,7.66-11.74c3.18-16.41,11.36-29.19,26.62-36.89a10.22,10.22,0,0,0-.19-18.3c-14.49-7.33-22.7-19.39-26-35-1.22-5.69-3.59-10.42-8.41-13.8a8.15,8.15,0,0,1-1.82-1.84C-.26,14.33-.79,10.41,1.22,6.38A10.67,10.67,0,0,1,11.2,0C30.9,0,50.61,0,70.32,0c9.94,0,19.88,0,29.82,0a11.22,11.22,0,0,1,10.94,11,10.51,10.51,0,0,1-4.44,9,19.51,19.51,0,0,0-7.81,12.41c-3.26,16.1-11.44,28.68-26.47,36.23a9.72,9.72,0,0,0-5.62,9.27A9.83,9.83,0,0,0,72.59,87c14.35,7.21,22.49,19.18,25.88,34.5,1.3,5.87,3.69,10.62,8.55,14.29a10.78,10.78,0,0,1,.24,16.79C105.76,153.83,103.81,154.53,102.07,155.48ZM55.52,38.88H72.34c5.25,0,8.42-2.58,9.65-7.65.73-3,1.46-6.06,2.45-9,1.25-3.7.06-5.57-3.82-5.57q-25.14,0-50.29,0c-.34,0-.69,0-1,0a3.31,3.31,0,0,0-3,4.54c1,3.36,2.06,6.72,2.91,10.12,1.23,5,4.37,7.55,9.53,7.56Zm.06,55.3c-3.08,4.14-7.18,6.54-11.41,8.87A28.41,28.41,0,0,0,32,116.38c-1.53,3.3.07,5.78,3.72,5.78q19.84,0,39.69,0c3.63,0,5.24-2.53,3.71-5.81a29.07,29.07,0,0,0-12.93-13.78A31.08,31.08,0,0,1,55.58,94.18Z"/></g></g></svg>